# xmcd
# 
# Track frame offsets:
#     150
#     31897
#     65255
#     90562
#     128215
#     159300
#     178220
# 
# Disc length: 2777
# 
# Revision: 2
# Processed by: cddbd v1.5.2PL0 Copyright (c) Steve Scherf et al.
# Submitted via: fre:ac v1.0.17
# 
DISCID=520ad707
DTITLE=MOZART - Violin Concerti No. 1 and 2 - Jean-Jacques Kantorow, Leopold Hager, Netherlands Chamber Orchestra
DYEAR=1985
DGENRE=Classical
TTITLE0=C.1 - Allegro moderate
TTITLE1=C.1 - Adagio
TTITLE2=C.1 - Presto
TTITLE3=C.2 - Allegro moderate
TTITLE4=C.2 - Andante
TTITLE5=C.2 - Rondeau  - Allegro
TTITLE6=RONDO IN B-FLAT MAJOR, KV269
EXTD=YEAR: 1985 ID3G: 32
EXTT0=
EXTT1=
EXTT2=
EXTT3=
EXTT4=
EXTT5=
EXTT6=
PLAYORDER=
